<svg id="_0229_city_buildings_2" xmlns="http://www.w3.org/2000/svg" viewBox="0 0 500 500" data-imageid="city-2-69" imageName="City 2" class="illustrations_image" style="width: 171px;"><defs><style>.cls-1_city-2-69{fill:#fff;}.cls-2_city-2-69{opacity:.19;}.cls-2_city-2-69,.cls-3_city-2-69,.cls-4_city-2-69,.cls-5_city-2-69,.cls-6_city-2-69,.cls-7_city-2-69,.cls-8_city-2-69,.cls-9_city-2-69,.cls-10_city-2-69,.cls-11_city-2-69,.cls-12_city-2-69{fill:none;}.cls-3_city-2-69{opacity:.57;}.cls-4_city-2-69{opacity:.13;}.cls-5_city-2-69{opacity:.18;}.cls-6_city-2-69{opacity:.44;}.cls-7_city-2-69{opacity:.28;}.cls-8_city-2-69{opacity:.36;}.cls-9_city-2-69{opacity:.52;}.cls-13_city-2-69{fill:#24285b;}.cls-14_city-2-69{fill:#000001;}.cls-10_city-2-69{opacity:.34;}.cls-11_city-2-69{opacity:.33;}.cls-12_city-2-69{opacity:.15;}.cls-15_city-2-69{fill:#ffd200;}.cls-16_city-2-69{fill:#68e1fd;}</style></defs><g id="bg_city-2-69"><g class="cls-2_city-2-69"><rect class="cls-16_city-2-69 targetColor" x="93.1" y="233.92" width="48.3" height="170.5" style="fill: rgb(66, 151, 230);"/></g><g class="cls-2_city-2-69"><rect class="cls-16_city-2-69 targetColor" x="335.88" y="169.43" width="51.95" height="183.83" style="fill: rgb(66, 151, 230);"/></g><g class="cls-2_city-2-69"><rect class="cls-16_city-2-69 targetColor" x="400.27" y="248.83" width="55.36" height="183.83" style="fill: rgb(66, 151, 230);"/></g><g class="cls-8_city-2-69"><path class="cls-16_city-2-69 targetColor" d="m62.72,124.14c-1.07,54.88-30.37,68.42-30.37,68.42v251.17h60.74v-251.17s-29.31-13.53-30.37-68.42Z" style="fill: rgb(66, 151, 230);"/></g></g><g id="sun_city-2-69"><circle class="cls-15_city-2-69" cx="409.06" cy="87.89" r="35.83"/><g class="cls-12_city-2-69"><circle class="cls-15_city-2-69" cx="409.06" cy="87.89" r="56"/></g></g><g id="buildings_city-2-69"><polygon class="cls-16_city-2-69 targetColor" points="337.25 311.48 337.25 348.64 337.25 444.5 464.28 444.5 464.28 348.64 464.28 311.48 337.25 311.48" style="fill: rgb(66, 151, 230);"/><g class="cls-4_city-2-69"><polygon class="cls-14_city-2-69" points="337.25 311.48 337.25 348.64 337.25 444.5 464.28 444.5 464.28 348.64 464.28 311.48 337.25 311.48"/></g><polygon class="cls-15_city-2-69" points="152.2 155.76 110.74 213.54 110.74 443.73 173.05 443.73 173.05 215.48 209.43 155.76 152.2 155.76"/><polygon class="cls-15_city-2-69" points="209.43 155.76 247.23 155.76 247.23 443.73 173.05 443.73 173.05 215.48 209.43 155.76"/><g class="cls-5_city-2-69"><polygon class="cls-14_city-2-69" points="209.43 155.76 247.23 155.76 247.23 443.73 173.05 443.73 173.05 215.48 209.43 155.76"/></g><path class="cls-1_city-2-69" d="m152.05,236.04h4.14c2.45,0,4.45,1.99,4.45,4.45v29.3h-13.03v-29.3c0-2.45,1.99-4.45,4.45-4.45Z"/><path class="cls-1_city-2-69" d="m125.63,235.95h4.14c2.45,0,4.45,1.99,4.45,4.45v29.3h-13.03v-29.3c0-2.45,1.99-4.45,4.45-4.45Z"/><g class="cls-9_city-2-69"><path class="cls-1_city-2-69" d="m152.05,292.62h4.14c2.45,0,4.45,1.99,4.45,4.45v29.3h-13.03v-29.3c0-2.45,1.99-4.45,4.45-4.45Z"/></g><g class="cls-9_city-2-69"><path class="cls-1_city-2-69" d="m125.63,292.53h4.14c2.45,0,4.45,1.99,4.45,4.45v29.3h-13.03v-29.3c0-2.45,1.99-4.45,4.45-4.45Z"/></g><rect class="cls-16_city-2-69 targetColor" x="58.05" y="344.09" width="81.76" height="99.63" style="fill: rgb(66, 151, 230);"/><rect class="cls-16_city-2-69 targetColor" x="66.29" y="309.44" width="65.28" height="34.65" style="fill: rgb(66, 151, 230);"/><g class="cls-6_city-2-69"><rect class="cls-1_city-2-69" x="58.05" y="344.09" width="81.76" height="9.1"/></g><rect class="cls-13_city-2-69" x="92.54" y="295.63" width="25.21" height="13.82"/><rect class="cls-13_city-2-69" x="280.91" y="109.58" width="25.21" height="13.82"/><rect class="cls-13_city-2-69" x="322.36" y="225.41" width="25.21" height="13.82"/><rect class="cls-16_city-2-69 targetColor" x="229.27" y="123.6" width="100.36" height="115.64" style="fill: rgb(66, 151, 230);"/><g class="cls-6_city-2-69"><rect class="cls-1_city-2-69" x="229.27" y="123.6" width="100.36" height="115.64"/></g><rect class="cls-16_city-2-69 targetColor" x="229.27" y="239.36" width="141.66" height="205.15" style="fill: rgb(66, 151, 230);"/><g class="cls-10_city-2-69"><rect class="cls-1_city-2-69" x="243.33" y="359.11" width="107.15" height="11.52"/></g><g class="cls-5_city-2-69"><rect class="cls-1_city-2-69" x="243.33" y="382.39" width="107.15" height="11.52"/></g><rect class="cls-13_city-2-69" x="246.96" y="286.41" width="18.42" height="18.42"/><rect class="cls-13_city-2-69" x="273.15" y="286.41" width="18.42" height="18.42"/><rect class="cls-13_city-2-69" x="299.33" y="286.41" width="18.42" height="18.42"/><rect class="cls-13_city-2-69" x="246.96" y="324.08" width="18.42" height="18.42"/><rect class="cls-13_city-2-69" x="273.15" y="324.08" width="18.42" height="18.42"/><rect class="cls-13_city-2-69" x="299.33" y="324.08" width="18.42" height="18.42"/><g class="cls-4_city-2-69"><rect class="cls-14_city-2-69" x="293.27" y="323.96" width="36.36" height="120.54"/></g><g class="cls-6_city-2-69"><polygon class="cls-1_city-2-69" points="110.74 213.54 173.05 215.48 209.43 155.76 151.81 152.93 110.74 213.54"/></g><rect class="cls-16_city-2-69 targetColor" x="314.12" y="311.48" width="127.03" height="37.17" style="fill: rgb(66, 151, 230);"/><g class="cls-6_city-2-69"><rect class="cls-1_city-2-69" x="314.12" y="311.48" width="127.03" height="37.17"/></g><rect class="cls-16_city-2-69 targetColor" x="314.12" y="348.64" width="127.03" height="95.86" style="fill: rgb(66, 151, 230);"/><rect class="cls-1_city-2-69" x="243.33" y="143.72" width="70.79" height="33.94"/><rect class="cls-13_city-2-69" x="243.33" y="194.14" width="18.42" height="18.42"/><rect class="cls-13_city-2-69" x="269.51" y="194.14" width="18.42" height="18.42"/><rect class="cls-13_city-2-69" x="295.69" y="194.14" width="18.42" height="18.42"/><g class="cls-7_city-2-69"><rect class="cls-1_city-2-69" x="184.9" y="260.69" width="35.27" height="14.55"/></g><rect class="cls-1_city-2-69" x="72.18" y="419.24" width="20.36" height="24.48"/><rect class="cls-1_city-2-69" x="249.39" y="419.24" width="20.36" height="24.48"/><rect class="cls-1_city-2-69" x="405.91" y="419.24" width="20.36" height="24.48"/><g class="cls-3_city-2-69"><rect class="cls-1_city-2-69" x="72.18" y="365.54" width="54.79" height="9.21"/></g><rect class="cls-1_city-2-69" x="75.35" y="322.2" width="47.76" height="9.21"/><g class="cls-3_city-2-69"><rect class="cls-1_city-2-69" x="72.18" y="386.64" width="54.79" height="9.21"/></g><g class="cls-11_city-2-69"><rect class="cls-1_city-2-69" x="139.81" y="365.54" width="33.23" height="78.19"/></g><g class="cls-5_city-2-69"><rect class="cls-14_city-2-69" x="197.27" y="315.23" width="32" height="128.49"/></g><rect class="cls-1_city-2-69" x="332.18" y="358.02" width="14.06" height="41.7"/><rect class="cls-1_city-2-69" x="357.55" y="358.02" width="14.06" height="41.7"/><rect class="cls-1_city-2-69" x="383.69" y="358.02" width="14.06" height="41.7"/><rect class="cls-1_city-2-69" x="409.06" y="358.02" width="14.06" height="41.7"/><rect class="cls-1_city-2-69" x="243.33" y="260.69" width="107.15" height="11.52"/><polygon class="cls-16_city-2-69 targetColor" points="385.39 311.48 353.87 260.69 322.36 311.48 385.39 311.48" style="fill: rgb(66, 151, 230);"/><polygon class="cls-13_city-2-69" points="385.39 311.48 353.87 260.69 322.36 311.48 385.39 311.48"/><rect class="cls-13_city-2-69" x="21.91" y="444.08" width="456.17" height="24.04" rx="5.4" ry="5.4"/></g></svg>