<svg width="100%" height="100%" id="svg" viewBox="0 0 1440 590" xmlns="http://www.w3.org/2000/svg" class="transition duration-300 ease-in-out delay-150"><path d="M 0,600 L 0,600 C 19.855482965614833,429.32820826566353 39.710965931229666,258.6564165313271 61,212 C 82.28903406877033,165.34358346867288 105.0116192406962,242.7025421403551 131,289 C 156.9883807593038,335.2974578596449 186.24255710598553,350.53341490725245 212,318 C 237.75744289401447,285.46658509274755 260.01815233536166,205.16379823063522 287,159 C 313.98184766463834,112.83620176936476 345.68483355256785,100.81139217020652 370,149 C 394.31516644743215,197.18860782979348 411.24251345436676,305.59063308853865 430,306 C 448.75748654563324,306.40936691146135 469.34511262996523,198.82607547563902 495,197 C 520.6548873700348,195.17392452436098 551.3770360257724,299.10506500890534 579,281 C 606.6229639742276,262.89493499109466 631.1467432669451,122.75366448873959 651,132 C 670.8532567330549,141.2463355112604 686.0359909064474,299.8802770361363 711,333 C 735.9640090935526,366.1197229638637 770.7092931072654,273.7252273667152 801,251 C 831.2907068927346,228.27477263328475 857.1268366644915,275.21881349700277 876,291 C 894.8731633355085,306.78118650299723 906.7833602347682,291.39951864527353 927,261 C 947.2166397652318,230.60048135472647 975.7397223964356,185.18311192190308 1004,162 C 1032.2602776035644,138.81688807809692 1060.2577501794894,137.86803366711405 1081,176 C 1101.7422498205106,214.13196633288595 1115.2292768856064,291.3447534096407 1139,307 C 1162.7707231143936,322.6552465903593 1196.8251422780847,276.7529526943231 1223,236 C 1249.1748577219153,195.2470473056769 1267.4701540020544,159.64343581306682 1291,170 C 1314.5298459979456,180.35656418693318 1343.2942417136987,236.67330405340948 1369,316 C 1394.7057582863013,395.3266959465905 1417.3528791431506,497.66334797329523 1440,600 L 1440,600 L 0,600 Z" stroke="none" stroke-width="0" fill="#0693e3" fill-opacity="1" class="transition-all duration-300 ease-in-out delay-150 path-0"></path></svg>